<?xml version="1.0" encoding="UTF-8"?>
<svg width="14px" height="11px" viewBox="0 0 14 11" version="1.1" xmlns="http://www.w3.org/2000/svg" xmlns:xlink="http://www.w3.org/1999/xlink">
    <!-- Generator: Sketch 53.2 (72643) - https://sketchapp.com -->
    <title>Shape Copy 3</title>
    <desc>Created with Sketch.</desc>
    <g id="Город" stroke="none" stroke-width="1" fill="none" fill-rule="evenodd">
        <g id="anh-city-page-desktop-premium-1440-developer-ad" transform="translate(-1018.000000, -5055.000000)" fill="#67C23B" fill-rule="nonzero" stroke="#67C23B">
            <g id="count" transform="translate(685.000000, 4933.000000)">
                <g id="ticks" transform="translate(0.000000, 119.000000)">
                    <path d="M345.890995,4.70587637 L338.370123,13.0621915 C338.224689,13.2235764 337.989063,13.2235764 337.843628,13.0621915 C337.841937,13.0605213 337.842689,13.0578072 337.841186,13.0559282 C337.837803,13.0525878 337.83367,13.0515439 337.830287,13.0479947 L334.110062,8.91441105 C333.963313,8.75114713 333.963313,8.48683495 334.110062,8.32398858 C334.256812,8.16072466 334.494881,8.16072466 334.64163,8.32398858 L338.111761,12.1794807 L345.3645,4.12088211 C345.509746,3.95970596 345.74556,3.95970596 345.890995,4.12088211 C346.036429,4.28205826 346.036241,4.54407389 345.890995,4.70587637 Z" id="Shape-Copy-3"></path>
                </g>
            </g>
        </g>
    </g>
</svg>