<?xml version="1.0" encoding="UTF-8"?>
<svg width="17px" height="18px" viewBox="0 0 17 18" version="1.1" xmlns="http://www.w3.org/2000/svg" xmlns:xlink="http://www.w3.org/1999/xlink">
    <!-- Generator: Sketch 53.2 (72643) - https://sketchapp.com -->
    <title>foreign</title>
    <desc>Created with Sketch.</desc>
    <g id="Главная-страница" stroke="none" stroke-width="1" fill="none" fill-rule="evenodd">
        <g id="anh-main-page-desktop-1440" transform="translate(-246.000000, -3692.000000)" fill="#FFFFFF" fill-rule="nonzero">
            <g id="card-copy-4" transform="translate(220.000000, 3529.000000)">
                <g id="open-pop-up" transform="translate(15.000000, 155.000000)">
                    <g id="foreign" transform="translate(11.000000, 8.000000)">
                        <path d="M16.2902632,0 L10.846345,0 C10.4705263,0 10.165848,0.304678363 10.165848,0.680497076 C10.165848,1.05631579 10.4705263,1.36099415 10.846345,1.36099415 L14.6474269,1.36099415 L7.64324561,8.36520468 C7.37748538,8.63096491 7.37748538,9.06178363 7.64324561,9.32754386 C7.77608187,9.46040936 7.95023392,9.52684211 8.12438596,9.52684211 C8.29853801,9.52684211 8.4727193,9.4604386 8.6055848,9.32751462 L15.6097953,2.32333333 L15.6097953,6.1244152 C15.6097953,6.50023392 15.9144737,6.80491228 16.2902924,6.80491228 C16.6661111,6.80491228 16.9707895,6.50023392 16.9707895,6.1244152 L16.9707895,0.680497076 C16.9707602,0.304678363 16.6660819,0 16.2902632,0 Z" id="Shape"></path>
                        <path d="M13.5683041,7.80488304 C13.1924854,7.80488304 12.887807,8.1095614 12.887807,8.48538012 L12.887807,16.6097953 L1.36096491,16.6097953 L1.36096491,5.08292398 L7.48538012,5.08292398 C7.86119883,5.08292398 8.16587719,4.77824561 8.16587719,4.4024269 C8.16587719,4.02660819 7.86119883,3.72195906 7.48538012,3.72195906 L0.680497076,3.72195906 C0.304678363,3.72195906 0,4.02663743 0,4.40245614 L0,17.2902924 C0,17.6660819 0.304678363,17.9707602 0.680497076,17.9707602 L13.5683333,17.9707602 C13.944152,17.9707602 14.2488304,17.6660819 14.2488304,17.2902632 L14.2488304,8.48538012 C14.2488012,8.1095614 13.9441228,7.80488304 13.5683041,7.80488304 Z" id="Shape"></path>
                    </g>
                </g>
            </g>
        </g>
    </g>
</svg>