<?xml version="1.0" encoding="UTF-8"?>
<svg width="20px" height="18px" viewBox="0 0 20 18" version="1.1" xmlns="http://www.w3.org/2000/svg" xmlns:xlink="http://www.w3.org/1999/xlink">
        <g id="anh-main-page-desktop" transform="translate(-1427.000000, -17.000000)" fill="#dae0ed" fill-rule="nonzero">
            <g id="header" transform="translate(255.000000, 0.000000)">
                <path d="M1182,35 C1181.71527,35 1181.44077,34.895654 1181.22684,34.7061023 C1180.41888,33.9914246 1179.63992,33.3198127 1178.95267,32.7273865 L1178.94916,32.7242994 C1176.93423,30.9873083 1175.19427,29.4872569 1173.98364,28.0095873 C1172.63034,26.3576476 1172,24.7913765 1172,23.0803176 C1172,21.4178815 1172.56351,19.88418 1173.58661,18.761534 C1174.62192,17.6256131 1176.04251,17 1177.58716,17 C1178.74164,17 1179.79892,17.3692244 1180.72955,18.0973313 C1181.19922,18.4648578 1181.62494,18.9146572 1182,19.4393201 C1182.37521,18.9146572 1182.80078,18.4648578 1183.2706,18.0973313 C1184.20123,17.3692244 1185.25851,17 1186.41299,17 C1187.95749,17 1189.37823,17.6256131 1190.41354,18.761534 C1191.43665,19.88418 1192,21.4178815 1192,23.0803176 C1192,24.7913765 1191.36981,26.3576476 1190.01651,28.009433 C1188.80588,29.4872569 1187.06607,30.987154 1185.05145,32.7239907 C1184.36298,33.317343 1183.58279,33.9900353 1182.77301,34.706411 C1182.55923,34.895654 1182.28458,35 1182,35 Z M1177.58716,18.1851611 C1176.37363,18.1851611 1175.25882,18.6750935 1174.44781,19.5648132 C1173.62476,20.4679621 1173.17142,21.71641 1173.17142,23.0803176 C1173.17142,24.5193976 1173.70013,25.806435 1174.88559,27.2533873 C1176.03137,28.6520255 1177.73563,30.1212054 1179.70889,31.8223853 L1179.71255,31.8254725 C1180.4024,32.4202141 1181.18442,33.09445 1181.99832,33.8143759 C1182.81711,33.0930607 1183.60034,32.4177443 1184.29156,31.8220766 C1186.26468,30.1208967 1187.96878,28.6520255 1189.11456,27.2533873 C1190.29987,25.806435 1190.82858,24.5193976 1190.82858,23.0803176 C1190.82858,21.71641 1190.37524,20.4679621 1189.55219,19.5648132 C1188.74133,18.6750935 1187.62637,18.1851611 1186.41299,18.1851611 C1185.52402,18.1851611 1184.70782,18.4710321 1183.98715,19.0347477 C1183.34491,19.5373375 1182.89752,20.1726752 1182.63522,20.6172263 C1182.50034,20.8458306 1182.26291,20.9822831 1182,20.9822831 C1181.73709,20.9822831 1181.49966,20.8458306 1181.36478,20.6172263 C1181.10263,20.1726752 1180.65524,19.5373375 1180.01285,19.0347477 C1179.29218,18.4710321 1178.47598,18.1851611 1177.58716,18.1851611 Z" id="Shape"></path>
            </g>
        </g>

</svg>
