<?xml version="1.0" encoding="UTF-8"?>
<svg width="12px" height="7px" viewBox="0 0 12 7" version="1.1" xmlns="http://www.w3.org/2000/svg" xmlns:xlink="http://www.w3.org/1999/xlink">
    <g stroke="none" stroke-width="1" fill="none" fill-rule="evenodd">
        <g id="anh-main-page-desktop" transform="translate(-635.000000, -88.000000)" fill="var(--blue)" fill-rule="nonzero">
            <g id="header" transform="translate(255.000000, 0.000000)">
                <g id="navigation-2" transform="translate(0.000000, 79.000000)">
                    <g id="Group-4" transform="translate(321.000000, 6.000000)">
                        <path d="M70.860657,3.81410463 L65.3905103,9.78337069 C65.373499,9.80840851 65.3792528,9.84120805 65.3572381,9.86349171 C65.2584222,9.96264146 65.127585,10.0054561 64.9982488,9.99944705 C64.8701634,10.0044546 64.7410774,9.96113919 64.643012,9.86324133 C64.6212475,9.84120805 64.6272515,9.80890926 64.6104903,9.78462258 L59.1395931,3.81510615 C58.953469,3.62857441 58.953469,3.32686871 59.1395931,3.14033697 C59.3257171,2.95430598 59.6271681,2.95430598 59.8135424,3.14033697 L64.9994996,8.79963484 L70.1862074,3.14008659 C70.3723315,2.95330447 70.6740326,2.95330447 70.8601567,3.14008659 C71.046531,3.32586719 71.046531,3.62782327 70.860657,3.81410463 Z" id="Shape-Copy-8"></path>
                    </g>
                </g>
            </g>
        </g>
    </g>
</svg>
