<?xml version="1.0" encoding="UTF-8"?>
<svg width="160px" height="160px" viewBox="0 0 160 160" version="1.1" xmlns="http://www.w3.org/2000/svg" xmlns:xlink="http://www.w3.org/1999/xlink">
    <!-- Generator: Sketch 52.6 (67491) - http://www.bohemiancoding.com/sketch -->
    <title>icon</title>
    <desc>Created with Sketch.</desc>
    <g id="Main-Page" stroke="none" stroke-width="1" fill="none" fill-rule="evenodd">
        <g id="anh-main-page-desktop" transform="translate(-975.000000, -1105.000000)">
            <g id="icon" transform="translate(975.000000, 1105.000000)">
                <circle id="Mask" fill="#F9FBFE" cx="80" cy="80" r="80"></circle>
                <g id="building" transform="translate(11.000000, 29.000000)">
                    <path d="M116.666667,93.5344828 L116.666667,83.1035218 C118.863932,81.8059724 120.151367,79.3837711 120,76.8318966 C120,73.1423214 117.762044,70.1508621 115,70.1508621 C112.237956,70.1508621 110,73.1423214 110,76.8318966 C109.848633,79.3837711 113.136068,81.8059724 115.333333,83.1035218 L115.333333,93.5344828 L101.666667,93.5344828 L101.666667,42.7889593 L91.6666667,37.7781834 L91.6666667,47.7672414 L96.6666667,47.7672414 L96.6666667,50.1077586 L91.6666667,50.1077586 L91.6666667,57.7887931 L96.6666667,57.7887931 L96.6666667,60.1293103 L91.6666667,60.1293103 L91.6666667,67.8103448 L96.6666667,67.8103448 L96.6666667,70.1508621 L91.6666667,70.1508621 L91.6666667,77.8318966 L96.6666667,77.8318966 L96.6666667,80.1724138 L91.6666667,80.1724138 L91.6666667,87.8534483 L96.6666667,87.8534483 L96.6666667,90.1939655 L91.6666667,90.1939655 L91.6666667,93.5344828 L88.3333333,93.5344828 L88.3333333,26.3130977 L68.3333333,20.5878948 L68.3333333,27.7241379 L80,27.7241379 L80,30.0646552 L68.3333333,30.0646552 L68.3333333,37.7456897 L80,37.7456897 L80,40.0862069 L68.3333333,40.0862069 L68.3333333,47.7672414 L80,47.7672414 L80,50.1077586 L68.3333333,50.1077586 L68.3333333,57.7887931 L80,57.7887931 L80,60.1293103 L68.3333333,60.1293103 L68.3333333,67.8103448 L80,67.8103448 L80,70.1508621 L68.3333333,70.1508621 L68.3333333,77.8318966 L80,77.8318966 L80,80.1724138 L68.3333333,80.1724138 L68.3333333,87.8534483 L80,87.8534483 L80,90.1939655 L68.3333333,90.1939655 L68.3333333,93.5344828 L65,93.5344828 L65,0 L35,0 L35,7.68103448 L50,7.68103448 L50,10.0215517 L35,10.0215517 L35,17.7025862 L50,17.7025862 L50,20.0431034 L35,20.0431034 L35,27.7241379 L50,27.7241379 L50,30.0646552 L35,30.0646552 L35,37.7456897 L50,37.7456897 L50,40.0862069 L35,40.0862069 L35,47.7672414 L50,47.7672414 L50,50.1077586 L35,50.1077586 L35,57.7887931 L50,57.7887931 L50,60.1293103 L35,60.1293103 L35,67.8103448 L50,67.8103448 L50,70.1508621 L35,70.1508621 L35,77.8318966 L50,77.8318966 L50,80.1724138 L35,80.1724138 L35,87.8534483 L50,87.8534483 L50,90.1939655 L35,90.1939655 L35,93.5344828 L35,94.875 L125,94.875 L125,93.5344828 L116.666667,93.5344828 Z" id="Path" fill="#3D87E6"></path>
                    <circle id="Oval" fill="#B1E2FF" cx="116" cy="77" r="7"></circle>
                    <g id="Group-3" transform="translate(0.000000, 10.000000)">
                        <path d="M5,62 L5,57.5 L5,62 L9.5,62 L5,62 Z M5,62 L5,66.5 L5,62 L0.5,62 L5,62 Z" id="Combined-Shape" stroke="#B1E2FF" stroke-width="2" stroke-linecap="round" stroke-linejoin="round"></path>
                        <path d="M118,5 L118,0.5 L118,5 L122.5,5 L118,5 Z M118,5 L118,9.5 L118,5 L113.5,5 L118,5 Z" id="Combined-Shape" stroke="#B1E2FF" stroke-width="2" stroke-linecap="round" stroke-linejoin="round"></path>
                        <circle id="Oval" fill="#B1E2FF" cx="18.5" cy="80.5" r="1.5"></circle>
                    </g>
                </g>
            </g>
        </g>
    </g>
</svg>