<!-- Generator: Adobe Illustrator 21.0.2, SVG Export Plug-In  -->
<svg version="1.1"
	 xmlns="http://www.w3.org/2000/svg" xmlns:xlink="http://www.w3.org/1999/xlink" xmlns:a="http://ns.adobe.com/AdobeSVGViewerExtensions/3.0/"
	 x="0px" y="0px" width="21px" height="17.3px" viewBox="0 0 21 17.3" style="enable-background:new 0 0 21 17.3;"
	 xml:space="preserve">
<style type="text/css">
	.st0{fill:#FFFFFF;}
</style>
<defs>
</defs>
<g id="UI-kit_1_">
	<g id="Ui-kit_1_" transform="translate(-510.000000, -2044.000000)">
		<g id="header-mobile_1_" transform="translate(240.000000, 2038.000000)">
			<g id="header_1_" transform="translate(197.000000, 17.000000)">
				<path id="Shape_11_" class="st0" d="M93-1.3H74c-0.6,0-1-0.5-1-1c0-0.6,0.5-1.1,1-1.1H93c0.6,0,1,0.5,1,1.1
					C94-1.8,93.5-1.3,93-1.3z M93-8.9H74c-0.6,0-1-0.5-1-1c0-0.6,0.5-1.1,1-1.1H93c0.6,0,1,0.5,1,1.1C94-9.4,93.5-8.9,93-8.9z
					 M74,4.2H93c0.6,0,1,0.5,1,1s-0.5,1.1-1,1.1H74c-0.6,0-1-0.5-1-1.1S73.5,4.2,74,4.2z"/>
			</g>
		</g>
	</g>
</g>
</svg>