<?xml version="1.0" encoding="UTF-8"?>
<svg width="18px" height="12px" viewBox="0 0 18 12" version="1.1" xmlns="http://www.w3.org/2000/svg" xmlns:xlink="http://www.w3.org/1999/xlink">
    <!-- Generator: Sketch 53.2 (72643) - https://sketchapp.com -->
    <title>Shape</title>
    <desc>Created with Sketch.</desc>
    <g id="Каталог-городов" stroke="none" stroke-width="1" fill="none" fill-rule="evenodd">
        <g id="anh-catalog-of-cities-mobile" transform="translate(-84.000000, -569.000000)" fill="#C1CADD" fill-rule="nonzero">
            <g id="button-filter" transform="translate(16.000000, 550.000000)">
                <g id="Group-2" transform="translate(68.000000, 19.000000)">
                    <path d="M17.2140676,1 L5.64284566,1 C5.28767343,1 5,0.77575 5,0.4995 C5,0.2235 5.28799486,0 5.64284566,0 L17.2140676,0 C17.5692398,0 17.8569133,0.2235 17.8569133,0.4995 C17.8569133,0.77575 17.5692398,1 17.2140676,1 Z M17.2140676,6 L5.64284566,6 C5.28767343,6 5,5.77669417 5,5.49987497 C5,5.22355589 5.28799486,5 5.64284566,5 L17.2140676,5 C17.5692398,5 17.8569133,5.22330583 17.8569133,5.49987497 C17.8569133,5.77694424 17.5692398,6 17.2140676,6 Z M5.64284593,10 L17.2140679,10 C17.5692401,10 17.8569135,10.2235559 17.8569135,10.499875 C17.8569135,10.7764441 17.5692401,11 17.2140679,11 L5.64284593,11 C5.2876737,11 5.00000027,10.7766942 5.00000027,10.499875 C4.99967885,10.2235559 5.2876737,10 5.64284593,10 Z M1,12 C0.44771525,12 0,11.5522847 0,11 C0,10.4477153 0.44771525,10 1,10 C1.55228475,10 2,10.4477153 2,11 C2,11.5522847 1.55228475,12 1,12 Z M1,7 C0.44771525,7 0,6.55228475 0,6 C0,5.44771525 0.44771525,5 1,5 C1.55228475,5 2,5.44771525 2,6 C2,6.55228475 1.55228475,7 1,7 Z M1,2 C0.44771525,2 0,1.55228475 0,1 C0,0.44771525 0.44771525,0 1,0 C1.55228475,0 2,0.44771525 2,1 C2,1.55228475 1.55228475,2 1,2 Z" id="Shape"></path>
                </g>
            </g>
        </g>
    </g>
</svg>