<?xml version="1.0" encoding="UTF-8"?>
<svg width="21px" height="20px" viewBox="0 0 21 20" version="1.1" xmlns="http://www.w3.org/2000/svg" xmlns:xlink="http://www.w3.org/1999/xlink">
    <!-- Generator: Sketch 52.6 (67491) - http://www.bohemiancoding.com/sketch -->

    <g id="Main-Page" stroke="none" stroke-width="1" fill="none" fill-rule="evenodd">
        <g id="anh-main-page-desktop" transform="translate(-255.000000, -79.000000)" fill="#dae0ed" fill-rule="nonzero">
            <g id="header" transform="translate(255.000000, 0.000000)">
                <g id="navigation-2" transform="translate(0.000000, 79.000000)">
                    <g id="home">
                        <path d="M15.8439558,4.7900361 L20.8390767,9.43862728 C21.0409917,9.63372076 21.0555441,9.9511456 20.8677268,10.1603367 C20.7667693,10.2685704 20.6294308,10.3190492 20.492547,10.3190492 L20.492547,10.3263254 L17.9663365,10.3263254 L17.9663365,19.4502429 C17.9663365,19.7317414 17.7353167,19.9627612 17.4538182,19.9627612 L12.4764577,19.9627612 C12.1949592,19.9627612 11.9712156,19.7317414 11.9712156,19.4502429 L11.9712156,12.4341536 L9.03384971,12.4341536 L9.03384971,19.4502429 C9.03384971,19.7317414 8.80282992,19.9627612 8.52133139,19.9627612 L3.54397095,19.9627612 C3.26247242,19.9627612 3.03872885,19.7317414 3.03872885,19.4502429 L3.03872885,10.3263254 L0.505242105,10.3263254 C0.223743579,10.3263254 0,10.0957603 0,9.81426182 C0,9.6555494 0.072307376,9.51093465 0.187817272,9.4172534 L5.1611095,4.79049086 L10.1557756,0.134168703 C10.3508691,-0.0459175918 10.6537415,-0.0459175918 10.848835,0.141444917 L15.8439558,4.7900361 Z M15.1508965,5.53357421 L10.5023053,1.20286263 L5.85371411,5.53402897 L1.80450106,9.30219827 L3.54397095,9.30219827 C3.82546948,9.30219827 4.05648927,9.53321806 4.05648927,9.81471658 L4.05648927,18.9386341 L8.01608929,18.9386341 L8.01608929,11.9289115 C8.01608929,11.647413 8.23983287,11.4163932 8.52133139,11.4163932 L12.4764577,11.4163932 C12.7579563,11.4163932 12.9889761,11.647413 12.9889761,11.9289115 L12.9889761,18.9377246 L16.9485761,18.9377246 L16.9485761,9.81426182 C16.9485761,9.53276329 17.1723197,9.3017435 17.4538182,9.3017435 L19.2005643,9.3017435 L15.1508965,5.53357421 Z" id="Shape"></path>
                    </g>
                </g>
            </g>
        </g>
    </g>
</svg>
