<?xml version="1.0" encoding="UTF-8"?>
<svg width="62px" height="76px" viewBox="0 0 62 76" version="1.1" xmlns="http://www.w3.org/2000/svg" xmlns:xlink="http://www.w3.org/1999/xlink">
    <!-- Generator: Sketch 52.6 (67491) - http://www.bohemiancoding.com/sketch -->
    <title>icon info</title>
    <desc>Created with Sketch.</desc>
    <g id="Page-1" stroke="none" stroke-width="1" fill="none" fill-rule="evenodd">
        <g id="alert-desktop-1440" transform="translate(-830.000000, -427.000000)" fill="#343434" fill-rule="nonzero">
            <g id="info" transform="translate(800.000000, 397.000000)">
                <g id="icon-info" transform="translate(30.000000, 30.000000)">
                    <g id="Group">
                        <path d="M30.851442,61.7414466 C13.8127585,61.7414466 0,47.9222212 0,30.8717523 C0,13.8233416 13.8127585,0 30.851442,0 C47.889097,0 61.7008272,13.8233416 61.7008272,30.8717523 C61.7008272,47.9222212 47.889097,61.7414466 30.851442,61.7414466 Z" id="Shape" fill-opacity="0.1"></path>
                        <path d="M33.6,71.7142857 L39.9,71.7142857 C41.059798,71.7142857 42,72.6736755 42,73.8571429 C42,75.0406102 41.059798,76 39.9,76 L23.1,76 C21.940202,76 21,75.0406102 21,73.8571429 C21,72.6736755 21.940202,71.7142857 23.1,71.7142857 L29.4,71.7142857 L29.4,50.2857143 L23.1,50.2857143 C21.940202,50.2857143 21,49.3263245 21,48.1428571 C21,46.9593898 21.940202,46 23.1,46 L31.5,46 C32.659798,46 33.6,46.9593898 33.6,48.1428571 L33.6,71.7142857 Z" id="Path"></path>
                        <path d="M29.5,31 L32.5,31 C33.3284271,31 34,31.6715729 34,32.5 L34,35.5 C34,36.3284271 33.3284271,37 32.5,37 L29.5,37 C28.6715729,37 28,36.3284271 28,35.5 L28,32.5 C28,31.6715729 28.6715729,31 29.5,31 Z" id="Path"></path>
                    </g>
                </g>
            </g>
        </g>
    </g>
</svg>