<?xml version="1.0" encoding="UTF-8"?>
<svg width="160px" height="160px" viewBox="0 0 160 160" version="1.1" xmlns="http://www.w3.org/2000/svg" xmlns:xlink="http://www.w3.org/1999/xlink">
    <!-- Generator: Sketch 52.6 (67491) - http://www.bohemiancoding.com/sketch -->
    <title>icon</title>
    <desc>Created with Sketch.</desc>
    <g id="Main-Page" stroke="none" stroke-width="1" fill="none" fill-rule="evenodd">
        <g id="anh-main-page-desktop" transform="translate(-975.000000, -875.000000)">
            <g id="icon" transform="translate(975.000000, 875.000000)">
                <circle id="Mask" fill="#F9FBFE" cx="80" cy="80" r="80"></circle>
                <g transform="translate(36.000000, 24.000000)">
                    <g>
                        <path d="M59.8721,41.826 C64.9011,44.38 68.9301,48.185 72.5991,52.346 C80.3731,61.163 84.6561,71.61 86.9291,83.064 C88.3771,90.365 88.7371,97.69 88.6021,105.076 C88.5681,106.911 88.2891,108.743 88.1221,110.576" id="Stroke-1" stroke="#408EF1" stroke-width="2" stroke-linecap="round" stroke-linejoin="round"></path>
                        <path d="M8.6221,83.576 C7.2771,84.622 5.2401,85.138 4.5881,86.713 C4.4781,86.979 4.5121,87.351 4.6971,87.573 C5.4081,88.426 6.7971,88.452 7.8751,88.539 C12.3161,88.898 20.6321,88.112 24.8741,86.834 C25.6081,86.612 26.4301,86.619 27.1131,86.305 C31.7431,84.183 34.5401,85.811 37.2491,89.993 C40.5941,95.156 46.3041,97.481 52.8771,94.588 C54.0081,94.09 55.2051,93.743 56.3721,93.326" id="Stroke-3" stroke="#408EF1" stroke-width="2" stroke-linecap="round" stroke-linejoin="round"></path>
                        <path d="M60.1221,93.826 C60.6111,99.005 60.7591,104.156 57.3301,108.543 C56.4431,109.679 55.0391,110.409 53.8721,111.326" id="Stroke-5" stroke="#408EF1" stroke-width="2" stroke-linecap="round" stroke-linejoin="round"></path>
                        <path d="M8.1221,63.576 C6.9551,64.159 5.8231,64.832 4.6121,65.301 C3.3701,65.782 1.5641,65.745 1.6921,67.571 C1.8061,69.186 2.9501,70.463 4.6291,70.788 C6.0101,71.056 7.4551,70.993 8.8721,71.076" id="Stroke-7" stroke="#408EF1" stroke-width="2" stroke-linecap="round" stroke-linejoin="round"></path>
                        <path d="M7.8721,53.826 C5.7711,54.615 3.6701,55.403 1.6441,56.163 C1.0901,60.256 3.5461,61.983 8.3721,61.076" id="Stroke-9" stroke="#408EF1" stroke-width="2" stroke-linecap="round" stroke-linejoin="round"></path>
                        <path d="M6.3721,33.326 C4.2801,33.602 1.9971,32.689 0.0001,34.049 C0.9641,37.909 3.8281,39.22 6.8721,40.326" id="Stroke-11" stroke="#408EF1" stroke-width="2" stroke-linecap="round" stroke-linejoin="round"></path>
                        <path d="M54.4937,3.7303 C54.3457,1.5353 52.4287,-0.1397 50.2337,0.0093 L10.1777,2.7143 C7.9817,2.8623 6.3077,4.7793 6.4557,6.9753 L12.1037,90.5983 C12.2517,92.7933 14.1697,94.4673 16.3647,94.3193 L56.4207,91.6143 C58.6157,91.4653 60.2897,89.5483 60.1417,87.3533 L58.8697,69.5253 C58.8077,68.6123 57.9737,67.9503 57.0707,68.0983 C56.2807,68.2273 55.7177,68.9363 55.7717,69.7353 L56.3207,76.8523 C56.4687,79.0473 54.7937,80.9643 52.5987,81.1133 L18.8887,83.3893 C16.6927,83.5383 14.7757,81.8633 14.6277,79.6683 L10.2437,14.7623 C10.0957,12.5663 11.7697,10.6493 13.9647,10.5013 L47.6757,8.2243 C49.8707,8.0763 51.7877,9.7513 51.9367,11.9463 L54.0697,44.5373 C54.1287,45.4073 54.8937,46.0593 55.7627,45.9783 C56.6007,45.9003 57.2247,45.1683 57.1677,44.3283 L54.4937,3.7303 Z" id="Fill-13" fill="#408EF1"></path>
                        <path d="M38.6221,87.326 C38.6221,88.983 37.2791,90.326 35.6221,90.326 C33.9651,90.326 32.6221,88.983 32.6221,87.326 C32.6221,85.669 33.9651,84.326 35.6221,84.326 C37.2791,84.326 38.6221,85.669 38.6221,87.326" id="Fill-15" fill="#F9FBFE"></path>
                        <path d="M61.8721,48.326 C54.9831,50.685 49.1271,54.888 43.1221,58.826 C41.1871,60.094 37.3591,60.850942 37.3591,62.593 C37.3591,64.335058 40.2921,65.847 42.1171,65.738 C44.6381,65.588 47.1851,65.028 49.6041,64.268 C51.9381,63.535 54.0921,62.248 56.3861,61.363 C57.3711,60.983 58.5091,61.003 59.3891,60.87 C61.8741,63.034 60.9931,65.681 61.0971,68.077 C61.2371,71.302 61.9301,74.341 64.6691,76.259 C66.1561,77.301 68.1221,77.659 69.8721,78.326" id="Stroke-17" stroke="#408EF1" stroke-width="2" stroke-linecap="round" stroke-linejoin="round"></path>
                    </g>
                    <g transform="translate(13.000000, 13.000000)">
                        <rect id="Rectangle" fill="#B7DDFF" transform="translate(18.618839, 10.732475) rotate(-4.000000) translate(-18.618839, -10.732475) " x="0.618839405" y="1.232475" width="36" height="19"></rect>
                        <polygon id="Rectangle-Copy-9" fill="#B7DDFF" transform="translate(12.085107, 52.020653) rotate(-4.000000) translate(-12.085107, -52.020653) " points="3.74106782 45.4749768 20.4291454 45.5663283 20.4291454 58.5663283 3.74106782 58.4749768"></polygon>
                        <circle id="Oval" fill="#F9FBFE" cx="8" cy="9" r="4"></circle>
                        <polygon id="Rectangle-Copy" fill="#B7DDFF" transform="translate(14.218849, 26.367671) rotate(-4.000000) translate(-14.218849, -26.367671) " points="2.07675889 24.843276 26.3609381 24.8920657 26.3609381 27.8920657 2.07675889 27.843276"></polygon>
                        <polygon id="Rectangle-Copy-10" fill="#B7DDFF" transform="translate(17.017280, 63.296105) rotate(-4.000000) translate(-17.017280, -63.296105) " points="4.6741123 61.7576494 29.3604471 61.8345605 29.3604471 64.8345605 4.6741123 64.7576494"></polygon>
                        <polygon id="Rectangle-Copy-7" fill="#B7DDFF" points="2.21864013 32.2113078 31.0063043 30.5728244 31.2598441 33.5655166 2.47217993 35.204"></polygon>
                        <polygon id="Rectangle-Copy-8" fill="#B7DDFF" points="2.73836973 38.6793078 31.0063043 37 31.2598441 39.9926922 2.99190953 41.672"></polygon>
                        <rect id="Rectangle-Copy-2" fill="#F9FBFE" transform="translate(24.085147, 6.054398) rotate(-4.000000) translate(-24.085147, -6.054398) " x="16.0851471" y="4.55439787" width="16" height="3"></rect>
                        <polygon id="Rectangle-Copy-3" fill="#F9FBFE" transform="translate(23.311354, 12.946063) rotate(-4.000000) translate(-23.311354, -12.946063) " points="17.0905845 11.4618791 29.5321228 11.4302465 29.5321228 14.4302465 23.0321228 14.4302465 17.0905845 14.4618791"></polygon>
                    </g>
                </g>
            </g>
        </g>
    </g>
</svg>