<?xml version="1.0" encoding="UTF-8"?>
<svg width="36px" height="36px" viewBox="0 0 36 36" version="1.1" xmlns="http://www.w3.org/2000/svg" xmlns:xlink="http://www.w3.org/1999/xlink">
    <!-- Generator: Sketch 52.6 (67491) - http://www.bohemiancoding.com/sketch -->
    <title>icon ok</title>
    <desc>Created with Sketch.</desc>
    <g id="Page-1" stroke="none" stroke-width="1" fill="none" fill-rule="evenodd">
        <g id="pop-up-thanks-desktop-1440" transform="translate(-702.000000, -373.000000)" fill="#1E68BE" fill-rule="nonzero">
            <g id="Group" transform="translate(545.000000, 385.000000)">
                <g id="icon-ok" transform="translate(157.000000, -12.000000)">
                    <path d="M18.0006,36 C8.0592,36 0,27.9423314 0,18.0006 C0,8.06006867 8.0592,0 18.0006,0 C27.9414,0 36,8.06006867 36,18.0006 C36,27.9423314 27.9414,36 18.0006,36 Z M18.0006,2.39947998 C9.3846,2.39947998 2.4006,9.38431281 2.4006,18.0006 C2.4006,26.6162872 9.3846,33.6017201 18.0006,33.6017201 C26.6154,33.6017201 33.6,26.6162872 33.6,18.0006 C33.6,9.38431281 26.6154,2.39947998 18.0006,2.39947998 Z M16.2996,26.0588686 C15.8508,26.5064835 15.1224,26.5064835 14.6736,26.0588686 C14.6562,26.040868 14.6634,26.0132671 14.6478,25.9958665 C14.637,25.9850662 14.6208,25.9904663 14.61,25.980866 L9.9462,21.3157105 C9.4584,20.8278943 9.4584,20.0382679 9.9462,19.5504517 C10.434,19.0626354 11.2248,19.0626354 11.712,19.5504517 L15.6342,23.4727824 L26.8284,12.2770092 C27.2778,11.8281943 28.0056,11.8281943 28.4544,12.2770092 C28.9038,12.7258242 28.9038,13.4536485 28.4544,13.9036635 L16.2996,26.0588686 Z" id="Shape"></path>
                </g>
            </g>
        </g>
    </g>
</svg>