<?xml version="1.0" encoding="UTF-8"?>
<svg width="62px" height="77px" viewBox="0 0 62 77" version="1.1" xmlns="http://www.w3.org/2000/svg" xmlns:xlink="http://www.w3.org/1999/xlink">
    <!-- Generator: Sketch 52.6 (67491) - http://www.bohemiancoding.com/sketch -->
    <title>icon notification</title>
    <desc>Created with Sketch.</desc>
    <g id="Page-1" stroke="none" stroke-width="1" fill="none" fill-rule="evenodd">
        <g id="alert-desktop-1440" transform="translate(-298.000000, -405.000000)" fill="#1E68BE" fill-rule="nonzero">
            <g id="notification" transform="translate(268.000000, 375.000000)">
                <g id="icon-notification" transform="translate(30.000000, 30.000000)">
                    <g id="Group">
                        <path d="M30.851442,61.7414466 C13.8127585,61.7414466 0,47.9222212 0,30.8717523 C0,13.8233416 13.8127585,0 30.851442,0 C47.889097,0 61.7008272,13.8233416 61.7008272,30.8717523 C61.7008272,47.9222212 47.889097,61.7414466 30.851442,61.7414466 Z" id="Shape" fill-opacity="0.1"></path>
                        <path d="M37.4070385,69.1239336 C37.4933462,69.5485141 37.5391154,69.9875316 37.5391154,70.4370488 C37.5391154,74.0620606 34.6111923,77 31,77 C27.3894615,77 24.4615385,74.0620606 24.4615385,70.4370488 C24.4615385,69.9875316 24.5073077,69.5485141 24.5936154,69.1239336 L14,69.1239336 L14,66.5003281 L16.6160385,66.5003281 L16.6160385,61.2498359 L16.6160385,50.7508203 C16.6160385,43.9424393 21.7997308,38.4117371 28.4107692,37.7568201 C28.4088077,37.710884 28.3846154,37.6728227 28.3846154,37.6275429 C28.3846154,36.1772757 29.5556538,35 31,35 C32.445,35 33.6153846,36.1772757 33.6153846,37.6275429 C33.6153846,37.6728227 33.5918462,37.7102278 33.5892308,37.7568201 C40.2009231,38.4123934 45.3852692,43.9424393 45.3852692,50.7508203 L45.3852692,61.2498359 L45.3852692,66.5003281 L48,66.5003281 L48,69.1239336 L37.4070385,69.1239336 Z M31,74.375082 C33.1661923,74.375082 34.9230769,72.6111372 34.9230769,70.4377051 C34.9230769,69.9724384 34.8066923,69.5393269 34.6595769,69.1245899 L27.3417308,69.1245899 C27.1933077,69.5393269 27.0775769,69.9724384 27.0775769,70.4377051 C27.0769231,72.6111372 28.8338077,74.375082 31,74.375082 Z M42.7692308,61.2498359 L42.7692308,50.7508203 C42.7692308,44.9523765 38.0857308,40.2504922 32.3076923,40.2504922 L29.6929615,40.2504922 C23.9142692,40.2504922 19.2307692,44.9530327 19.2307692,50.7508203 L19.2307692,61.2498359 L19.2307692,66.5003281 L20.0075385,66.5003281 L41.9937692,66.5003281 L42.7698846,66.5003281 L42.7698846,61.2498359 L42.7692308,61.2498359 Z" id="Shape"></path>
                    </g>
                </g>
            </g>
        </g>
    </g>
</svg>