<?xml version="1.0" encoding="UTF-8"?>
<svg width="20px" height="17px" viewBox="0 0 20 17" version="1.1" xmlns="http://www.w3.org/2000/svg" xmlns:xlink="http://www.w3.org/1999/xlink">
    <!-- Generator: Sketch 53.2 (72643) - https://sketchapp.com -->
    <title>Shape</title>
    <desc>Created with Sketch.</desc>
    <g id="Catalog-of-cities" stroke="none" stroke-width="1" fill="none" fill-rule="evenodd">
        <g id="anh-catalog-of-cities--desktop" transform="translate(-616.000000, -2060.000000)" fill="#FF8C28" fill-rule="nonzero">
            <g id="card-copy-7" transform="translate(615.000000, 1684.000000)">
                <g id="Group-3" transform="translate(0.000000, 376.000000)">
                    <g id="multiple-users-silhouette" transform="translate(1.000000, 0.000000)">
                        <path d="M11.9395062,2.85777778 C12.854321,3.43135802 13.4958025,4.40197531 13.6125926,5.52864198 C13.985679,5.70296296 14.3997531,5.80320988 14.8387654,5.80320988 C16.4414815,5.80320988 17.7404938,4.50419753 17.7404938,2.9017284 C17.7404938,1.29901235 16.4414815,0 14.8387654,0 C13.251358,0.00049382716 11.9637037,1.2762963 11.9395062,2.85777778 Z M10.0385185,8.79901235 C11.6412346,8.79901235 12.9402469,7.49975309 12.9402469,5.89728395 C12.9402469,4.29481481 11.6409877,2.99580247 10.0385185,2.99580247 C8.43604938,2.99580247 7.1362963,4.29506173 7.1362963,5.89753086 C7.1362963,7.5 8.43604938,8.79901235 10.0385185,8.79901235 Z M11.2693827,8.99679012 L8.80716049,8.99679012 C6.75851852,8.99679012 5.09185185,10.6637037 5.09185185,12.7123457 L5.09185185,15.7234568 L5.09950617,15.7706173 L5.30691358,15.8355556 C7.26197531,16.4464198 8.96049383,16.6501235 10.3585185,16.6501235 C13.0891358,16.6501235 14.6718519,15.8716049 14.7693827,15.8219753 L14.9632099,15.7239506 L14.9839506,15.7239506 L14.9839506,12.7123457 C14.9846914,10.6637037 13.3180247,8.99679012 11.2693827,8.99679012 Z M16.0701235,6.00123457 L13.6269136,6.00123457 C13.6004938,6.97876543 13.1832099,7.85901235 12.5232099,8.49209877 C14.3441975,9.03358025 15.6765432,10.7222222 15.6765432,12.7167901 L15.6765432,13.6446914 C18.0888889,13.5562963 19.4790123,12.8725926 19.5706173,12.8266667 L19.7644444,12.7283951 L19.7851852,12.7283951 L19.7851852,9.7162963 C19.7851852,7.66790123 18.1185185,6.00123457 16.0701235,6.00123457 Z M4.94691358,5.8037037 C5.5145679,5.8037037 6.04271605,5.63802469 6.49012346,5.35580247 C6.63234568,4.42814815 7.12962963,3.61753086 7.84,3.0654321 C7.84296296,3.01111111 7.84814815,2.95728395 7.84814815,2.90246914 C7.84814815,1.29975309 6.54888889,0.000740740741 4.94691358,0.000740740741 C3.34395062,0.000740740741 2.04518519,1.29975309 2.04518519,2.90246914 C2.04518519,4.50444444 3.34395062,5.8037037 4.94691358,5.8037037 Z M7.55283951,8.49209877 C6.89604938,7.86222222 6.48024691,6.98666667 6.44987654,6.01506173 C6.35925926,6.00839506 6.26962963,6.00123457 6.17728395,6.00123457 L3.71530864,6.00123457 C1.66666667,6.00123457 0,7.66790123 0,9.7162963 L0,12.7279012 L0.00765432099,12.774321 L0.215061728,12.8397531 C1.78345679,13.3293827 3.18320988,13.5550617 4.39901235,13.6261728 L4.39901235,12.7167901 C4.39950617,10.7222222 5.73135802,9.03407407 7.55283951,8.49209877 Z" id="Shape"></path>
                    </g>
                </g>
            </g>
        </g>
    </g>
</svg>