<!-- Generator: Adobe Illustrator 21.0.2, SVG Export Plug-In  -->
<svg version="1.1"
	 xmlns="http://www.w3.org/2000/svg" xmlns:xlink="http://www.w3.org/1999/xlink" xmlns:a="http://ns.adobe.com/AdobeSVGViewerExtensions/3.0/"
	 x="0px" y="0px" width="20.4px" height="20.5px" viewBox="0 0 20.4 20.5" style="enable-background:new 0 0 20.4 20.5;"
	 xml:space="preserve">
<style type="text/css">
	.st0{fill:#dae0ed;stroke:#dae0ed;stroke-width:1;}
</style>
<defs>
</defs>
<g id="UI-kit_1_">
	<g id="Ui-kit_1_" transform="translate(-873.000000, -2057.000000)">
		<g id="header_1_" transform="translate(630.000000, 2038.000000)">
			<path id="Shape_1_" class="st0" d="M247.3,32.6c2,2.4,4.4,4.2,7.1,5.5c1,0.5,2.4,1.1,4,1.2c0.1,0,0.2,0,0.3,0
				c1,0,1.9-0.4,2.5-1.1c0,0,0,0,0,0c0.2-0.3,0.5-0.6,0.8-0.8c0.2-0.2,0.4-0.4,0.6-0.6c0.9-0.9,0.9-2.1,0-3l-2.5-2.5
				c-0.4-0.4-0.9-0.7-1.5-0.7c-0.5,0-1,0.2-1.5,0.7l-1.5,1.5c-0.1-0.1-0.3-0.1-0.4-0.2c-0.2-0.1-0.3-0.2-0.5-0.2
				c-1.4-0.9-2.6-2-3.8-3.4c-0.6-0.8-1-1.4-1.3-2c0.4-0.4,0.8-0.7,1.1-1.1c0.1-0.1,0.3-0.3,0.4-0.4c0.4-0.4,0.7-1,0.7-1.5
				c0-0.5-0.2-1-0.7-1.5l-1.2-1.2c-0.1-0.1-0.3-0.3-0.4-0.4c-0.3-0.3-0.6-0.6-0.8-0.8c-0.4-0.4-0.9-0.6-1.5-0.6
				c-0.5,0-1,0.2-1.5,0.6l-1.6,1.6c-0.6,0.6-0.9,1.2-1,2c-0.1,1,0.1,2,0.6,3.3C244.6,28.8,245.7,30.6,247.3,32.6z M244.3,23.6
				c0-0.6,0.3-1,0.7-1.4l1.5-1.5c0.2-0.2,0.5-0.4,0.8-0.4c0.3,0,0.5,0.1,0.7,0.4c0.3,0.3,0.5,0.5,0.8,0.8c0.1,0.1,0.3,0.3,0.4,0.4
				l1.2,1.2c0.3,0.3,0.4,0.5,0.4,0.8s-0.1,0.5-0.4,0.8c-0.1,0.1-0.3,0.3-0.4,0.4c-0.4,0.4-0.7,0.8-1.1,1.1c0,0,0,0,0,0
				c-0.3,0.3-0.3,0.7-0.2,0.9c0,0,0,0,0,0c0.3,0.8,0.8,1.5,1.5,2.4c1.2,1.5,2.6,2.7,4,3.6c0.2,0.1,0.4,0.2,0.5,0.3
				c0.2,0.1,0.3,0.2,0.5,0.2c0,0,0,0,0,0c0.1,0.1,0.3,0.1,0.4,0.1c0.3,0,0.5-0.2,0.6-0.3l1.6-1.6c0.2-0.2,0.5-0.4,0.8-0.4
				c0.3,0,0.6,0.2,0.7,0.4l2.5,2.5c0.5,0.5,0.5,1,0,1.6c-0.2,0.2-0.4,0.4-0.6,0.6c-0.3,0.3-0.6,0.6-0.9,0.9c-0.5,0.5-1,0.8-1.8,0.8
				c-0.1,0-0.1,0-0.2,0c-1.4-0.1-2.6-0.6-3.6-1.1c-2.6-1.2-4.8-3-6.7-5.3c-1.5-1.9-2.6-3.6-3.3-5.5
				C244.4,25.3,244.2,24.4,244.3,23.6z"/>
		</g>
	</g>
</g>
</svg>
