<!-- Generator: Adobe Illustrator 21.0.2, SVG Export Plug-In  -->
<svg version="1.1"
	 xmlns="http://www.w3.org/2000/svg" xmlns:xlink="http://www.w3.org/1999/xlink" xmlns:a="http://ns.adobe.com/AdobeSVGViewerExtensions/3.0/"
	 x="0px" y="0px" width="19.2px" height="17.9px" viewBox="0 0 19.2 17.9" style="enable-background:new 0 0 19.2 17.9;"
	 xml:space="preserve">
<style type="text/css">
	.st0{fill:#231F20;}
</style>
<defs>
</defs>
<g id="Page-1_1_">
	<g id="anh-catalog-of-districts-desktop-1440_1_" transform="translate(-451.000000, -2512.000000)">
		<g id="Group_1_" transform="translate(165.000000, 667.000000)">
			<g id="button-2_1_" transform="translate(286.000000, 1845.000000)">
				<g id="button_1_">
					<g id="Group-2_1_">
						<g id="curved-arrows_1_">
							<g id="Shape_1_">
								<path class="st0" d="M17,7.4c-0.3,0-0.6-0.2-0.7-0.5c-0.7-3.3-3.6-5.6-7-5.6S3,3.6,2.3,6.9C2.2,7.2,1.9,7.4,1.5,7.3
									S1,6.9,1,6.6C1.9,2.7,5.4,0,9.3,0s7.4,2.7,8.3,6.6c0.1,0.3-0.1,0.7-0.5,0.8C17,7.3,17,7.4,17,7.4z"/>
								<path class="st0" d="M17.4,7.6c-0.1,0-0.2,0-0.3,0l-2.4-1c-0.4-0.1-0.5-0.5-0.4-0.9c0.1-0.3,0.6-0.5,0.9-0.3L17,6l0.8-1.7
									C17.9,4,18.4,3.9,18.7,4c0.4,0.1,0.5,0.5,0.4,0.9l-1,2.3c-0.1,0.2-0.2,0.3-0.4,0.3C17.6,7.6,17.5,7.6,17.4,7.6z"/>
								<path class="st0" d="M9.4,17.9c-4,0-7.4-2.7-8.3-6.6c-0.1-0.3,0.1-0.7,0.5-0.8s0.7,0.1,0.8,0.5c0.7,3.3,3.6,5.6,7,5.6
									s6.3-2.3,7-5.6c0.1-0.3,0.4-0.6,0.8-0.5s0.6,0.4,0.5,0.8C16.8,15.2,13.4,17.9,9.4,17.9z"/>
								<path class="st0" d="M0.7,14.2c-0.1,0-0.2,0-0.3,0c-0.4-0.1-0.5-0.6-0.4-0.9l1-2.4c0.1-0.4,0.6-0.5,0.9-0.4l2.4,1
									C4.9,11.6,5,12,4.9,12.4c-0.1,0.4-0.6,0.5-0.9,0.4L2.1,12l-0.8,1.7C1.3,14,1,14.2,0.7,14.2z"/>
							</g>
						</g>
					</g>
				</g>
			</g>
		</g>
	</g>
</g>
</svg>