<?xml version="1.0" encoding="UTF-8"?>
<svg width="20px" height="17px" viewBox="0 0 20 17" version="1.1" xmlns="http://www.w3.org/2000/svg" xmlns:xlink="http://www.w3.org/1999/xlink">
    <!-- Generator: Sketch 53.2 (72643) - https://sketchapp.com -->
    <title>three-buildings</title>
    <desc>Created with Sketch.</desc>
    <g id="Catalog-of-cities" stroke="none" stroke-width="1" fill="none" fill-rule="evenodd">
        <g id="anh-catalog-of-cities--desktop" transform="translate(-615.000000, -2090.000000)" fill="#1E68BE" fill-rule="nonzero">
            <g id="card-copy-7" transform="translate(615.000000, 1684.000000)">
                <g id="Group-3" transform="translate(0.000000, 376.000000)">
                    <g id="three-buildings" transform="translate(0.000000, 30.000000)">
                        <path d="M5.4025567,16.1802887 L8.9334433,16.1802887 L8.9334433,12.5696907 L11.0557938,12.5696907 L11.0557938,16.1802887 L14.5866804,16.1802887 L14.5866804,0.0150927835 L5.4025567,0.0150927835 L5.4025567,16.1802887 Z M10.6388866,1.92016495 L12.7611959,1.92016495 L12.7611959,4.04251546 L10.6388866,4.04251546 L10.6388866,1.92016495 Z M10.6388866,5.33109278 L12.7611959,5.33109278 L12.7611959,7.4534433 L10.6388866,7.4534433 L10.6388866,5.33109278 Z M10.6388866,8.74193814 L12.7611959,8.74193814 L12.7611959,10.8642887 L10.6388866,10.8642887 L10.6388866,8.74193814 Z M7.228,1.92016495 L9.35030928,1.92016495 L9.35030928,4.04251546 L7.228,4.04251546 L7.228,1.92016495 Z M7.228,5.33109278 L9.35030928,5.33109278 L9.35030928,7.4534433 L7.228,7.4534433 L7.228,5.33109278 Z M7.228,8.74193814 L9.35030928,8.74193814 L9.35030928,10.8642887 L7.228,10.8642887 L7.228,8.74193814 Z" id="Shape"></path>
                        <path d="M15.4110928,1.46317526 L15.4110928,12.8931959 L16.7745979,12.8931959 L16.7745979,16.1802887 L19.9891959,16.1802887 L19.9891959,1.46317526 L15.4110928,1.46317526 Z M18.327299,11.3405773 L16.3950515,11.3405773 L16.3950515,9.40837113 L18.3272577,9.40837113 L18.3272577,11.3405773 L18.327299,11.3405773 Z M18.327299,8.23517526 L16.3950515,8.23517526 L16.3950515,6.30301031 L18.3272577,6.30301031 L18.3272577,8.23517526 L18.327299,8.23517526 Z M18.327299,5.12981443 L16.3950515,5.12981443 L16.3950515,3.19764948 L18.3272577,3.19764948 L18.3272577,5.12981443 L18.327299,5.12981443 Z" id="Shape"></path>
                        <path d="M0,16.1802887 L3.21459794,16.1802887 L3.21459794,12.8931959 L4.57810309,12.8931959 L4.57810309,1.46317526 L0,1.46317526 L0,16.1802887 Z M1.66193814,3.19764948 L3.59414433,3.19764948 L3.59414433,5.12981443 L1.66193814,5.12981443 L1.66193814,3.19764948 Z M1.66193814,6.30301031 L3.59414433,6.30301031 L3.59414433,8.23517526 L1.66193814,8.23517526 L1.66193814,6.30301031 Z M1.66193814,9.40828866 L3.59414433,9.40828866 L3.59414433,11.3404536 L1.66193814,11.3404536 L1.66193814,9.40828866 Z" id="Shape"></path>
                    </g>
                </g>
            </g>
        </g>
    </g>
</svg>