<?xml version="1.0" encoding="UTF-8"?>
<svg width="62px" height="76px" viewBox="0 0 62 76" version="1.1" xmlns="http://www.w3.org/2000/svg" xmlns:xlink="http://www.w3.org/1999/xlink">
    <!-- Generator: Sketch 52.6 (67491) - http://www.bohemiancoding.com/sketch -->
    <title>icon added</title>
    <desc>Created with Sketch.</desc>
    <g id="Page-1" stroke="none" stroke-width="1" fill="none" fill-rule="evenodd">
        <g id="alert-desktop-1440" transform="translate(-305.000000, -209.000000)" fill="#65C454" fill-rule="nonzero">
            <g id="added-to-cart" transform="translate(275.000000, 189.000000)">
                <g id="icon-added" transform="translate(30.000000, 20.000000)">
                    <g id="Group">
                        <path d="M30.851442,61.7414466 C13.8127585,61.7414466 0,47.9222212 0,30.8717523 C0,13.8233416 13.8127585,0 30.851442,0 C47.889097,0 61.7008272,13.8233416 61.7008272,30.8717523 C61.7008272,47.9222212 47.889097,61.7414466 30.851442,61.7414466 Z" id="Shape" fill-opacity="0.1"></path>
                        <path d="M30.0647645,32.9686886 C29.5578201,33.4730222 28.735052,33.4730222 28.2281076,32.9686886 C28.2084533,32.9484071 28.2165861,32.9173088 28.1989651,32.8977033 C28.1867659,32.8855344 28.1684671,32.8916189 28.1562679,32.8808021 L22.8882478,27.6245108 C22.3372507,27.0748819 22.3372507,26.1851997 22.8882478,25.6355708 C23.4392449,25.0859418 24.3324972,25.0859418 24.8828166,25.6355708 L29.3131584,30.0549117 L41.9576265,17.4404887 C42.4652486,16.9348031 43.287339,16.9348031 43.7942834,17.4404887 C44.3019055,17.9461744 44.3019055,18.7662234 43.7942834,19.2732612 L30.0647645,32.9686886 Z" id="Path"></path>
                    </g>
                    <path d="M38.9523082,76 L34.6556426,76 L32.5075784,76 L28.2114498,76 L26.0639226,76 L21.7672571,76 L13.175,76 L13.175,74.9326405 L13.175,73.8674136 L13.175,48.2753103 L21.7672571,48.2753103 L21.7672571,41.877551 L38.9523082,41.877551 L38.9523082,48.2753103 L47.5445652,48.2753103 L47.5445652,73.8674136 L47.5445652,74.9326405 L47.5445652,76 L38.9523082,76 Z M21.7672571,50.408963 L15.3236013,50.408963 L15.3236013,73.8674136 L21.7672571,73.8674136 L21.7672571,50.408963 Z M28.2114498,73.8674136 L32.5075784,73.8674136 L32.5075784,69.6017076 L28.2114498,69.6017076 L28.2114498,73.8674136 Z M36.8037069,48.2753103 L36.8037069,44.0101374 L23.9153213,44.0101374 L23.9153213,48.2753103 L23.9153213,73.8674136 L26.0639226,73.8674136 L26.0639226,69.6017076 L26.0639226,67.468588 L28.2114498,67.468588 L32.5075784,67.468588 L34.6556426,67.468588 L34.6556426,69.6017076 L34.6556426,73.8674136 L36.8037069,73.8674136 L36.8037069,48.2753103 Z M45.396501,50.408963 L38.9523082,50.408963 L38.9523082,73.8674136 L45.396501,73.8674136 L45.396501,50.408963 Z M43.2484367,56.8061891 L41.1003724,56.8061891 L41.1003724,54.6741358 L43.2484367,54.6741358 L43.2484367,56.8061891 Z M43.2484367,63.2034152 L41.1003724,63.2034152 L41.1003724,61.0697625 L43.2484367,61.0697625 L43.2484367,63.2034152 Z M43.2484367,69.6017076 L41.1003724,69.6017076 L41.1003724,67.468588 L43.2484367,67.468588 L43.2484367,69.6017076 Z M26.0639226,61.0697625 L34.6556426,61.0697625 L34.6556426,63.2034152 L26.0639226,63.2034152 L26.0639226,61.0697625 Z M26.0639226,54.6741358 L34.6556426,54.6741358 L34.6556426,56.8061891 L26.0639226,56.8061891 L26.0639226,54.6741358 Z M26.0639226,48.2753103 L34.6556426,48.2753103 L34.6556426,50.408963 L26.0639226,50.408963 L26.0639226,48.2753103 Z M19.6191928,56.8061891 L17.4711285,56.8061891 L17.4711285,54.6741358 L19.6191928,54.6741358 L19.6191928,56.8061891 Z M19.6191928,63.2034152 L17.4711285,63.2034152 L17.4711285,61.0697625 L19.6191928,61.0697625 L19.6191928,63.2034152 Z M19.6191928,69.6017076 L17.4711285,69.6017076 L17.4711285,67.468588 L19.6191928,67.468588 L19.6191928,69.6017076 Z" id="Shape"></path>
                </g>
            </g>
        </g>
    </g>
</svg>