<?xml version="1.0" encoding="UTF-8"?>
<svg width="61px" height="69px" viewBox="0 0 61 69" version="1.1" xmlns="http://www.w3.org/2000/svg" xmlns:xlink="http://www.w3.org/1999/xlink">
    <!-- Generator: Sketch 52.6 (67491) - http://www.bohemiancoding.com/sketch -->
    <title>icon deleted add</title>
    <desc>Created with Sketch.</desc>
    <g id="Page-1" stroke="none" stroke-width="1" fill="none" fill-rule="evenodd">
        <g id="alert-desktop-1440" transform="translate(-777.000000, -217.000000)" fill="#FF3228" fill-rule="nonzero">
            <g id="deleted" transform="translate(747.000000, 193.000000)">
                <g id="icon-deleted-add" transform="translate(30.000000, 24.000000)">
                    <g id="Group">
                        <path d="M30.353838,55.9668054 C13.5899721,55.9668054 0,43.440084 0,27.9843355 C0,12.5304526 13.5899721,0 30.353838,0 C47.1166922,0 60.7056526,12.5304526 60.7056526,27.9843355 C60.7056526,43.440084 47.1166922,55.9668054 30.353838,55.9668054 Z" id="Shape" fill-opacity="0.1"></path>
                        <path d="M38.411441,29.442731 C37.8458715,29.9673778 36.8937394,29.9393103 36.2888191,29.3779598 L31.0544072,24.5258762 L25.8199953,29.3779598 C25.215075,29.9393103 24.2637145,29.9680975 23.6966018,29.4441703 C23.129489,28.9173645 23.1611239,28.0343169 23.7652726,27.4765648 L29.0004561,22.6216025 L23.7652726,17.7680796 C23.1603523,17.2067291 23.1310322,16.3244012 23.6973734,15.800474 C24.2644861,15.2736682 25.215075,15.3031751 25.8199953,15.8630862 L31.0544072,20.7173288 L36.2888191,15.8630862 C36.8937394,15.3031751 37.8450999,15.2736682 38.4122126,15.800474 C38.9793254,16.3258405 38.9484621,17.2067291 38.3435418,17.7680796 L33.1083583,22.6216025 L38.3435418,27.4765648 C38.9484621,28.0357563 38.9793254,28.9159251 38.411441,29.442731 Z" id="Path"></path>
                    </g>
                    <path d="M38.670636,68.9757023 L34.4432716,68.9757023 L32.3298535,68.9757023 L28.1030174,68.9757023 L25.9901277,68.9757023 L21.7627632,68.9757023 L13.3090909,68.9757023 L13.3090909,68.0081723 L13.3090909,67.0425754 L13.3090909,43.8440865 L21.7627632,43.8440865 L21.7627632,38.0447059 L38.670636,38.0447059 L38.670636,43.8440865 L47.1243083,43.8440865 L47.1243083,67.0425754 L47.1243083,68.0081723 L47.1243083,68.9757023 L38.670636,68.9757023 Z M21.7627632,45.7781799 L15.4230373,45.7781799 L15.4230373,67.0425754 L21.7627632,67.0425754 L21.7627632,45.7781799 Z M28.1030174,67.0425754 L32.3298535,67.0425754 L32.3298535,63.1758384 L28.1030174,63.1758384 L28.1030174,67.0425754 Z M36.5566896,43.8440865 L36.5566896,39.9778327 L23.8761812,39.9778327 L23.8761812,43.8440865 L23.8761812,67.0425754 L25.9901277,67.0425754 L25.9901277,63.1758384 L25.9901277,61.2422283 L28.1030174,61.2422283 L32.3298535,61.2422283 L34.4432716,61.2422283 L34.4432716,63.1758384 L34.4432716,67.0425754 L36.5566896,67.0425754 L36.5566896,43.8440865 Z M45.0108902,45.7781799 L38.670636,45.7781799 L38.670636,67.0425754 L45.0108902,67.0425754 L45.0108902,45.7781799 Z M42.8974722,51.5770772 L40.7840541,51.5770772 L40.7840541,49.6444336 L42.8974722,49.6444336 L42.8974722,51.5770772 Z M42.8974722,57.3759745 L40.7840541,57.3759745 L40.7840541,55.4418811 L42.8974722,55.4418811 L42.8974722,57.3759745 Z M42.8974722,63.1758384 L40.7840541,63.1758384 L40.7840541,61.2422283 L42.8974722,61.2422283 L42.8974722,63.1758384 Z M25.9901277,55.4418811 L34.4432716,55.4418811 L34.4432716,57.3759745 L25.9901277,57.3759745 L25.9901277,55.4418811 Z M25.9901277,49.6444336 L34.4432716,49.6444336 L34.4432716,51.5770772 L25.9901277,51.5770772 L25.9901277,49.6444336 Z M25.9901277,43.8440865 L34.4432716,43.8440865 L34.4432716,45.7781799 L25.9901277,45.7781799 L25.9901277,43.8440865 Z M19.6493451,51.5770772 L17.535927,51.5770772 L17.535927,49.6444336 L19.6493451,49.6444336 L19.6493451,51.5770772 Z M19.6493451,57.3759745 L17.535927,57.3759745 L17.535927,55.4418811 L19.6493451,55.4418811 L19.6493451,57.3759745 Z M19.6493451,63.1758384 L17.535927,63.1758384 L17.535927,61.2422283 L19.6493451,61.2422283 L19.6493451,63.1758384 Z" id="Shape"></path>
                </g>
            </g>
        </g>
    </g>
</svg>